<svg id="Layer_1" data-name="Layer 1" xmlns="http://www.w3.org/2000/svg" viewBox="0 0 611.09 265.13"><polygon points="112.92 96.81 128.29 124.16 98.29 176.78 112.92 202.32 173.77 96.81 112.92 96.81"/><path d="M201,96.33l-47.63,82.72,14.68,26.12,49.19-85C214.06,111.8,209,102.6,201,96.33Z"/><path d="M237.36,192.15c.18-.19.37-.38.55-.58s.47-.48.7-.73l.54-.58.69-.75.51-.58.68-.78.26-.3c.5-.59,1-1.18,1.48-1.78.17-.22.35-.43.52-.64l.58-.76c.18-.23.36-.45.53-.68l.56-.76.53-.71.54-.76.51-.73c.18-.25.35-.51.52-.76s.34-.5.5-.75l.51-.77.49-.77.48-.77.48-.8.46-.76.48-.84.43-.75.5-.91c.12-.23.25-.46.37-.7.27-.5.53-1,.78-1.51l.32-.64c.18-.36.36-.72.53-1.09l.33-.71c.15-.32.3-.64.44-1s.22-.5.34-.76l.4-.93c.11-.26.22-.52.32-.78s.26-.62.38-.94.21-.53.31-.79l.36-.94c.1-.27.2-.53.29-.8s.23-.64.34-1,.19-.53.28-.8.21-.66.32-1,.17-.52.25-.78l.32-1c.07-.25.15-.5.22-.75s.22-.78.32-1.17c.06-.21.12-.42.17-.63.16-.6.31-1.2.46-1.81l.06-.26.36-1.57c0-.22.09-.44.13-.66.09-.4.17-.8.25-1.2,0-.25.09-.5.14-.75s.13-.74.19-1.11.09-.54.13-.8.12-.73.17-1.09l.12-.82c0-.36.09-.72.14-1.08s.07-.55.1-.83.08-.73.11-1.09.06-.55.08-.83.07-.74.1-1.11l.06-.81c0-.39.05-.79.07-1.18s0-.51,0-.76c0-.44,0-.87,0-1.31l0-.64c0-.65,0-1.3,0-2A84.81,84.81,0,0,0,176.77,48h-145l53.7,106.17,1-1.46,0,0,2.58-4L101.91,129l-.13-.26.58-.91-10.8-19.48-17-33.88H176.77a58.44,58.44,0,0,1,58.37,58.37c0,.69,0,1.38,0,2.06l0,.67c0,.46,0,.92-.07,1.37,0,.27-.05.54-.07.81s-.07.81-.11,1.21-.07.57-.11.86-.08.76-.14,1.14-.09.59-.13.89-.11.72-.18,1.09-.11.6-.17.91-.13.69-.2,1-.14.62-.22.93-.14.67-.23,1-.16.63-.24.94-.17.65-.26,1l-.28.94c-.1.31-.19.63-.29.94s-.21.63-.32.95-.2.6-.31.9-.23.64-.35,1l-.33.86c-.13.33-.27.64-.4,1s-.23.55-.35.83-.29.64-.44,1l-.36.8-.48,1-.38.76c-.17.33-.35.65-.53,1s-.25.47-.38.71l-.57,1c-.13.22-.26.45-.4.67l-.15.25-.37.41-8.52,10.8a58.6,58.6,0,0,1-12.55,9.43l-19.24,33.35a82.88,82.88,0,0,0,11.23-2h0l.16,0,1-.27.76-.21,1-.28.75-.22,1-.31.75-.24,1-.33.72-.25,1-.36.7-.25,1-.39.63-.25,1.08-.43.45-.19c1.34-.56,2.66-1.15,4-1.77l.47-.23,1-.52c.2-.1.4-.19.59-.3l1-.51.63-.34,1-.52.64-.36.93-.54c.22-.12.43-.25.64-.38l.92-.55.62-.39.91-.58.61-.39.91-.61.56-.38.93-.65.45-.32c1.14-.82,2.25-1.66,3.35-2.53l.44-.34.85-.7.55-.46.8-.68.58-.5.77-.69.58-.52.74-.69.58-.55.73-.7.57-.57Z"/><path d="M307.73,198.36a5.57,5.57,0,0,1,5.63-5.84,5.1,5.1,0,0,1,4.05,1.78l-1,1a3.83,3.83,0,0,0-3-1.36,4.39,4.39,0,0,0,0,8.77,3.86,3.86,0,0,0,3-1.36l1,1a5.12,5.12,0,0,1-4.06,1.8A5.57,5.57,0,0,1,307.73,198.36Z"/><path d="M329.12,204.07l-2.3-3.51c-.21,0-.44,0-.67,0h-2.63v3.48H322V192.65h4.14c2.77,0,4.44,1.5,4.44,4a3.59,3.59,0,0,1-2.34,3.6l2.52,3.84Zm-.05-7.44c0-1.63-1-2.56-3-2.56h-2.59v5.14h2.59C328.05,199.21,329.07,198.26,329.07,196.63Z"/><path d="M343.2,202.65v1.42h-7.72V192.65H343v1.42h-6v3.51h5.33V199H337v3.69Z"/><path d="M354.86,201.21h-5.65L348,204.07h-1.56l4.81-11.42h1.51l4.83,11.42H356Zm-.53-1.3-2.29-5.6-2.3,5.6Z"/><path d="M363.75,194.07H360.1v-1.42h8.8v1.42h-3.65v10h-1.5Z"/><path d="M373,192.65h1.52v11.42H373Z"/><path d="M389.36,192.65l-4.66,11.42h-1.51l-4.68-11.42h1.64L384,202l3.86-9.38Z"/><path d="M401.09,202.65v1.42h-7.72V192.65h7.5v1.42h-6v3.51h5.33V199h-5.33v3.69Z"/><path d="M412.49,192.65H417a5.71,5.71,0,1,1,0,11.42h-4.48Zm4.39,10a4.29,4.29,0,1,0,0-8.58H414v8.58Z"/><path d="M435.19,202.65v1.42h-7.72V192.65H435v1.42h-6v3.51h5.33V199H429v3.69Z"/><path d="M439.11,202.76l.56-1.27a5.23,5.23,0,0,0,3.51,1.32c1.84,0,2.63-.77,2.63-1.76,0-2.79-6.45-1-6.45-5.27,0-1.76,1.28-3.26,4.08-3.26a5.94,5.94,0,0,1,3.41,1l-.5,1.31a5.16,5.16,0,0,0-2.91-.93c-1.81,0-2.59.81-2.59,1.81,0,2.79,6.45,1,6.45,5.23,0,1.75-1.31,3.25-4.12,3.25A6,6,0,0,1,439.11,202.76Z"/><path d="M451.94,192.65h1.52v11.42h-1.52Z"/><path d="M466.45,198.29h1.46v4.45a6,6,0,0,1-4,1.46,5.84,5.84,0,0,1,0-11.68,5.14,5.14,0,0,1,4.09,1.76l-.94,1A4.09,4.09,0,0,0,464,194a4.39,4.39,0,0,0,0,8.77,4.29,4.29,0,0,0,2.49-.73Z"/><path d="M482.38,192.65v11.42h-1.24l-6.38-8.52v8.52h-1.52V192.65h1.24l6.38,8.51v-8.51Z"/><path d="M502.24,202.65v1.42h-7.72V192.65H502v1.42h-6v3.51h5.33V199H496v3.69Z"/><path d="M513.81,204.07l-3.19-4.72-3.14,4.72h-1.75l4-5.86L506,192.65h1.73l3,4.39,2.95-4.39h1.66l-3.76,5.51,4,5.91Z"/><path d="M528.36,196.63c0,2.48-1.67,4-4.43,4H521.3v3.46h-1.52V192.65h4.15C526.69,192.65,528.36,194.15,528.36,196.63Zm-1.52,0c0-1.63-1-2.56-3-2.56H521.3v5.12h2.58C525.83,199.19,526.84,198.26,526.84,196.63Z"/><path d="M540.9,202.65v1.42h-7.72V192.65h7.5v1.42h-6v3.51H540V199H534.7v3.69Z"/><path d="M552.9,204.07l-2.3-3.51c-.21,0-.44,0-.67,0H547.3v3.48h-1.52V192.65h4.15c2.77,0,4.44,1.5,4.44,4a3.59,3.59,0,0,1-2.34,3.6l2.52,3.84Zm0-7.44c0-1.63-1-2.56-3-2.56H547.3v5.14h2.59C551.83,199.21,552.85,198.26,552.85,196.63Z"/><path d="M561.37,194.07h-3.65v-1.42h8.8v1.42h-3.65v10h-1.5Z"/><path d="M569.63,202.76l.56-1.27a5.25,5.25,0,0,0,3.51,1.32c1.84,0,2.63-.77,2.63-1.76,0-2.79-6.44-1-6.44-5.27,0-1.76,1.28-3.26,4.07-3.26a6,6,0,0,1,3.42,1l-.5,1.31a5.21,5.21,0,0,0-2.92-.93c-1.81,0-2.58.81-2.58,1.81,0,2.79,6.44,1,6.44,5.23,0,1.75-1.31,3.25-4.12,3.25A6,6,0,0,1,569.63,202.76Z"/><polygon points="340.33 82.31 308.94 133.43 275.5 53.69 292.64 53.69 312.61 101.32 340.33 55.39 368.05 101.32 388.01 53.69 405.15 53.69 371.71 133.43 340.33 82.31"/><polygon points="423.36 132.96 423.36 53.69 487.44 53.69 487.44 65.38 440.68 65.38 440.68 86.57 484.39 86.57 484.39 97.9 440.68 97.9 440.68 121.27 488.46 121.27 488.46 132.96 423.36 132.96"/><path d="M507.85,133V53.69h37.71c7.56,0,14,1.9,19.1,5.65,4.89,3.59,7.27,7.94,7.27,13.3a14.46,14.46,0,0,1-2.87,9A96.26,96.26,0,0,1,560.49,91l-.14-.08a26.15,26.15,0,0,1,14.41,7.71,16.84,16.84,0,0,1,4.58,12c0,6.38-2.55,11.55-7.8,15.79S559.27,133,551.07,133Zm16.88-10.84h21.84a16.92,16.92,0,0,0,10.91-3.52,11.68,11.68,0,0,0,4.69-9.44,11.18,11.18,0,0,0-4.76-9.31,17.81,17.81,0,0,0-11-3.29h-21.7Zm0-34.7h17.2a14.26,14.26,0,0,0,9.41-3.12,10.63,10.63,0,0,0,4-8.5,10.33,10.33,0,0,0-4-8.34,14.23,14.23,0,0,0-9.25-3H524.73Z"/><path d="M307.67,176.44V148.22h11.8q7.92,0,12.23,3.91a14.37,14.37,0,0,1,0,20.48q-4.28,3.82-12.22,3.83Zm6.89-5.67h4.51c3.66,0,6.25-.75,7.75-2.25a8.23,8.23,0,0,0,2.26-6.13,8.45,8.45,0,0,0-2.26-6.24q-2.25-2.27-7.8-2.26h-4.46Z"/><path d="M347.81,176.44V148.22h21.27v5.67H354.69v5.3h13.45v5.55H354.69v6h14.7v5.67Z"/><path d="M379.36,172.39l3.48-5.18a12.68,12.68,0,0,0,9.34,4,6.78,6.78,0,0,0,3.76-.77,2.4,2.4,0,0,0,1.07-2c0-.89-.6-1.56-1.81-2s-3.11-1-5.72-1.7a19.67,19.67,0,0,1-6.53-2.92,6.55,6.55,0,0,1-2.61-5.69,7.34,7.34,0,0,1,3-6q3-2.37,8.82-2.37a14.46,14.46,0,0,1,10.46,4l-3.31,4.7a10,10,0,0,0-7.1-3.16,7.24,7.24,0,0,0-4,.79,2.33,2.33,0,0,0-1.12,1.92,2.37,2.37,0,0,0,1.52,2,32.86,32.86,0,0,0,6.33,2q4.8,1.2,6.77,3.24a6.84,6.84,0,0,1,2,4.92,7.65,7.65,0,0,1-2.93,6.28c-2,1.56-4.84,2.34-8.65,2.34A19.9,19.9,0,0,1,379.36,172.39Z"/><path d="M414.89,176.44V148.22h6.88v28.22Z"/><path d="M438.62,172.73a13.53,13.53,0,0,1,0-20.79,17.66,17.66,0,0,1,11.89-4.17,17.06,17.06,0,0,1,12.06,4.58L457.92,156a10.62,10.62,0,0,0-7.41-2.59,10.18,10.18,0,0,0-7,2.55,8.5,8.5,0,0,0,0,12.7,10.22,10.22,0,0,0,7,2.53A10.39,10.39,0,0,0,457.3,169v-3.81h-8.18v-5.5h14.61v11.41a15.41,15.41,0,0,1-5.67,4.2,18.41,18.41,0,0,1-7.55,1.55A17.7,17.7,0,0,1,438.62,172.73Z"/><path d="M475.89,176.44V147.08l20.92,17.17v-16h6.79v29.4l-20.92-17.17v16Z"/><path d="M516.83,176.44V148.22h13a11,11,0,0,1,7.48,2.69,8.41,8.41,0,0,1,3.11,6.62q0,5-5.36,7.65l7.42,11.26h-7.78l-6.48-10.16h-4.6v10.16Zm6.84-15.83h5.76a4.76,4.76,0,0,0,3.09-.89,3.1,3.1,0,0,0,1.07-2.51,2.91,2.91,0,0,0-1.12-2.45,4.37,4.37,0,0,0-2.77-.87h-6Z"/><path d="M553.3,176.44V148.22h13.05a11,11,0,0,1,7.48,2.69,8.44,8.44,0,0,1,3.11,6.62q0,5-5.36,7.65L579,176.44h-7.77l-6.48-10.16h-4.6v10.16Zm6.84-15.83h5.76a4.71,4.71,0,0,0,3.08-.89,3.08,3.08,0,0,0,1.08-2.51,2.93,2.93,0,0,0-1.12-2.45,4.39,4.39,0,0,0-2.77-.87h-6Z"/></svg>